#Comment line ignore any data following # character 
#Hierarchical Translation and Rotation (.htr) file 
[Header]	
#Header keywords are followed by a single value 
FileType HTR		#Single word string
DataType HTRS		#Translation followed by rotation and scale data
FileVersion 1		#integer
NumSegments 64		#integer
NumFrames 3		#integer
DataFrameRate 30		#integer, data frame rate in this file
EulerRotationOrder ZYX
CalibrationUnits mm
RotationUnits Degrees
GlobalAxisofGravity Y
BoneLengthAxis Y
ScaleFactor 1.00
[SegmentNames&Hierarchy]
#CHILD	PARENT
Pinger_Root GLOBAL
Pelvis Pinger_Root
L_Hip Pelvis
R_Hip Pelvis
Rear_Leg01 Pelvis
Spine1 Pelvis
L_Leg01 L_Hip
L_Leg02 L_Leg01
L_Leg03 L_Leg02
L_Foot L_Leg03
L_Toe1_01 L_Foot
L_Toe2_01 L_Foot
L_Toe3_01 L_Foot
planeAlignerLeft L_Foot
L_Toe1_02 L_Toe1_01
L_Toe1_03 L_Toe1_02
L_Toe2_02 L_Toe2_01
L_Toe2_03 L_Toe2_02
L_Toe3_02 L_Toe3_01
L_Toe3_03 L_Toe3_02
planeLockWeightLeft planeAlignerLeft
R_Leg01 R_Hip
R_Leg02 R_Leg01
R_Leg03 R_Leg02
R_Foot R_Leg03
planeAlignerRight R_Foot
R_Toe1_01 R_Foot
R_Toe2_01 R_Foot
R_Toe3_01 R_Foot
planeLockWeightRight planeAlignerRight
R_Toe1_02 R_Toe1_01
R_Toe1_03 R_Toe1_02
R_Toe2_02 R_Toe2_01
R_Toe2_03 R_Toe2_02
R_Toe3_02 R_Toe3_01
R_Toe3_03 R_Toe3_02
Rear_Leg02 Rear_Leg01
Rear_Leg03 Rear_Leg02
Rear_Leg04 Rear_Leg03
Rear_Foot Rear_Leg04
planeAlignerCenter Rear_Foot
Rear_Toe1_01 Rear_Foot
Rear_Toe2_01 Rear_Foot
Rear_Toe3_01 Rear_Foot
planeLockWeightCenter planeAlignerCenter
Rear_Toe1_02 Rear_Toe1_01
Rear_Toe1_03 Rear_Toe1_02
Rear_Toe2_02 Rear_Toe2_01
Rear_Toe2_03 Rear_Toe2_02
Rear_Toe3_02 Rear_Toe3_01
Rear_Toe3_03 Rear_Toe3_02
Back_Bone Spine1
Head Spine1
Motor_Bone Back_Bone
Ping_Mechanism Back_Bone
BN_LookIK Head
bottomMouth Head
L_Mouth01 Head
L_mouthFront Head
mouthGun Head
R_Mouth01 Head
R_mouthFront Head
TopMouth Head
weapon_bone Head
[BasePosition]
#SegmentName Tx, Ty, Tz, Rx, Ry, Rz, BoneLength
Pinger_Root 0.000000 0.000000 0.000000 -90.000000 0.000000 0.000000 10.000000 
Pelvis 0.000000 0.000000 0.000000 0.000000 0.000000 0.000000 10.000000 
L_Hip 0.000000 0.000000 0.000000 0.000000 0.000000 0.000000 10.000000 
R_Hip 0.000000 0.000000 0.000000 0.000000 0.000000 0.000000 10.000000 
Rear_Leg01 0.000000 0.000000 0.000000 0.000000 0.000000 0.000000 10.000000 
Spine1 0.000000 0.000000 0.000000 0.000000 0.000000 0.000000 10.000000 
L_Leg01 0.000000 0.000000 0.000000 0.000000 0.000000 0.000000 10.000000 
L_Leg02 0.000000 0.000000 0.000000 0.000000 0.000000 0.000000 10.000000 
L_Leg03 0.000000 0.000000 0.000000 0.000000 0.000000 0.000000 10.000000 
L_Foot 0.000000 0.000000 0.000000 0.000000 0.000000 0.000000 10.000000 
L_Toe1_01 0.000000 0.000000 0.000000 0.000000 0.000000 0.000000 10.000000 
L_Toe2_01 0.000000 0.000000 0.000000 0.000000 0.000000 0.000000 10.000000 
L_Toe3_01 0.000000 0.000000 0.000000 0.000000 0.000000 0.000000 10.000000 
planeAlignerLeft 0.000000 0.000000 0.000000 0.000000 0.000000 0.000000 10.000000 
L_Toe1_02 0.000000 0.000000 0.000000 0.000000 0.000000 0.000000 10.000000 
L_Toe1_03 0.000000 0.000000 0.000000 0.000000 0.000000 0.000000 10.000000 
L_Toe2_02 0.000000 0.000000 0.000000 0.000000 0.000000 0.000000 10.000000 
L_Toe2_03 0.000000 0.000000 0.000000 0.000000 0.000000 0.000000 10.000000 
L_Toe3_02 0.000000 0.000000 0.000000 0.000000 0.000000 0.000000 10.000000 
L_Toe3_03 0.000000 0.000000 0.000000 0.000000 0.000000 0.000000 10.000000 
planeLockWeightLeft 0.000000 0.000000 0.000000 0.000000 0.000000 0.000000 10.000000 
R_Leg01 0.000000 0.000000 0.000000 0.000000 0.000000 0.000000 10.000000 
R_Leg02 0.000000 0.000000 0.000000 0.000000 0.000000 0.000000 10.000000 
R_Leg03 0.000000 0.000000 0.000000 0.000000 0.000000 0.000000 10.000000 
R_Foot 0.000000 0.000000 0.000000 0.000000 0.000000 0.000000 10.000000 
planeAlignerRight 0.000000 0.000000 0.000000 0.000000 0.000000 0.000000 10.000000 
R_Toe1_01 0.000000 0.000000 0.000000 0.000000 0.000000 0.000000 10.000000 
R_Toe2_01 0.000000 0.000000 0.000000 0.000000 0.000000 0.000000 10.000000 
R_Toe3_01 0.000000 0.000000 0.000000 0.000000 0.000000 0.000000 10.000000 
planeLockWeightRight 0.000000 0.000000 0.000000 0.000000 0.000000 0.000000 10.000000 
R_Toe1_02 0.000000 0.000000 0.000000 0.000000 0.000000 0.000000 10.000000 
R_Toe1_03 0.000000 0.000000 0.000000 0.000000 0.000000 0.000000 10.000000 
R_Toe2_02 0.000000 0.000000 0.000000 0.000000 0.000000 0.000000 10.000000 
R_Toe2_03 0.000000 0.000000 0.000000 0.000000 0.000000 0.000000 10.000000 
R_Toe3_02 0.000000 0.000000 0.000000 0.000000 0.000000 0.000000 10.000000 
R_Toe3_03 0.000000 0.000000 0.000000 0.000000 0.000000 0.000000 10.000000 
Rear_Leg02 0.000000 0.000000 0.000000 0.000000 0.000000 0.000000 10.000000 
Rear_Leg03 0.000000 0.000000 0.000000 0.000000 0.000000 0.000000 10.000000 
Rear_Leg04 0.000000 0.000000 0.000000 0.000000 0.000000 0.000000 10.000000 
Rear_Foot 0.000000 0.000000 0.000000 0.000000 0.000000 0.000000 10.000000 
planeAlignerCenter 0.000000 0.000000 0.000000 0.000000 0.000000 0.000000 10.000000 
Rear_Toe1_01 0.000000 0.000000 0.000000 0.000000 0.000000 0.000000 10.000000 
Rear_Toe2_01 0.000000 0.000000 0.000000 0.000000 0.000000 0.000000 10.000000 
Rear_Toe3_01 0.000000 0.000000 0.000000 0.000000 0.000000 0.000000 10.000000 
planeLockWeightCenter 0.000000 0.000000 0.000000 0.000000 0.000000 0.000000 10.000000 
Rear_Toe1_02 0.000000 0.000000 0.000000 0.000000 0.000000 0.000000 10.000000 
Rear_Toe1_03 0.000000 0.000000 0.000000 0.000000 0.000000 0.000000 10.000000 
Rear_Toe2_02 0.000000 0.000000 0.000000 0.000000 0.000000 0.000000 10.000000 
Rear_Toe2_03 0.000000 0.000000 0.000000 0.000000 0.000000 0.000000 10.000000 
Rear_Toe3_02 0.000000 0.000000 0.000000 0.000000 0.000000 0.000000 10.000000 
Rear_Toe3_03 0.000000 0.000000 0.000000 0.000000 0.000000 0.000000 10.000000 
Back_Bone 0.000000 0.000000 0.000000 0.000000 0.000000 0.000000 10.000000 
Head 0.000000 0.000000 0.000000 0.000000 0.000000 0.000000 10.000000 
Motor_Bone 0.000000 0.000000 0.000000 0.000000 0.000000 0.000000 10.000000 
Ping_Mechanism 0.000000 0.000000 0.000000 0.000000 0.000000 0.000000 10.000000 
BN_LookIK 0.000000 0.000000 0.000000 0.000000 0.000000 0.000000 10.000000 
bottomMouth 0.000000 0.000000 0.000000 0.000000 0.000000 0.000000 10.000000 
L_Mouth01 0.000000 0.000000 0.000000 0.000000 0.000000 0.000000 10.000000 
L_mouthFront 0.000000 0.000000 0.000000 0.000000 0.000000 0.000000 10.000000 
mouthGun 0.000000 0.000000 0.000000 0.000000 0.000000 0.000000 10.000000 
R_Mouth01 0.000000 0.000000 0.000000 0.000000 0.000000 0.000000 10.000000 
R_mouthFront 0.000000 0.000000 0.000000 0.000000 0.000000 0.000000 10.000000 
TopMouth 0.000000 0.000000 0.000000 0.000000 0.000000 0.000000 10.000000 
weapon_bone 0.000000 0.000000 0.000000 0.000000 0.000000 0.000000 10.000000 
#Beginning of Data. Separated by tabs
#Fr	Tx	Ty	Tz	Rx	Ry	Rz	SF
[Pinger_Root]
21 0.000000 0.000000 0.000000 -0.000075 -0.000000 -0.000020 0.000000
22 0.000000 0.000000 0.000000 -0.000075 -0.000000 -0.000020 0.000000
23 0.000000 0.000000 0.000000 -0.000075 -0.000000 -0.000020 0.000000
[Pelvis]
21 56.640377 905.970520 4996.843750 -85.621315 -74.887161 78.181915 5078.625488
22 55.538574 926.906982 4997.019043 -90.500641 -73.181526 82.889816 5082.562500
23 55.849621 963.143066 4916.272461 -92.425125 -72.511055 84.722443 5010.040039
[L_Hip]
21 5.766392 125.831482 872.656799 160.158691 -45.484905 122.312202 881.701050
22 5.766392 125.831482 872.656799 160.158691 -45.484905 122.312202 881.701050
23 5.766392 125.831482 872.656799 160.158691 -45.484905 122.312202 881.701050
[R_Hip]
21 5.765438 125.836372 -872.654907 38.087841 49.812698 125.703743 881.699829
22 5.765438 125.836372 -872.654907 38.087841 49.812687 125.703735 881.699829
23 5.765438 125.836372 -872.654907 38.087841 49.812687 125.703735 881.699829
[Rear_Leg01]
21 -192.298416 -925.602966 -0.001907 171.657028 6.156066 -157.849136 945.367432
22 -192.298416 -925.602966 -0.001907 171.003250 5.282515 -159.088913 945.367432
23 -192.298416 -925.602966 -0.001907 170.695770 4.916013 -159.036346 945.367432
[Spine1]
21 290.604584 5.007505 0.000477 6.581312 -2.174475 6.767873 290.647736
22 290.604584 5.007505 0.000477 7.064709 -0.955052 4.810251 290.647736
23 290.604584 5.007505 0.000477 7.284651 -0.713573 4.377907 290.647736
[L_Leg01]
21 761.932007 -0.002384 -0.069261 11.050791 -16.478380 -0.609359 761.932068
22 761.932007 -0.002384 -0.069261 9.621960 -15.997377 4.111198 761.932068
23 761.932007 -0.002384 -0.069261 10.883314 -15.364337 3.638875 761.932068
[L_Leg02]
21 1441.140503 -0.000954 -0.000715 7.103323 -2.744251 -113.042564 1441.140503
22 1441.140503 -0.000954 -0.000715 7.374335 -2.830655 -116.173256 1441.140503
23 1441.140503 -0.000954 -0.000715 8.004199 -2.555469 -117.737015 1441.140503
[L_Leg03]
21 1686.963989 -0.000715 -0.000954 0.036539 -0.010323 100.309875 1686.963989
22 1686.963989 -0.000715 -0.000954 0.036534 -0.010341 100.367836 1686.963989
23 1686.963989 -0.000715 -0.000954 0.019239 -0.005946 104.348175 1686.963989
[L_Foot]
21 3041.570068 -30.715107 11.297464 6.689415 8.759873 58.683819 3041.746094
22 3041.570068 -30.715107 11.297464 6.592741 8.185669 59.345116 3041.746094
23 3041.570068 -30.715107 11.297464 6.168697 8.820580 58.332485 3041.746094
[L_Toe1_01]
21 -188.216690 -224.732346 -21.137953 93.874077 -6.655910 -173.739502 293.899567
22 -188.216690 -224.732346 -21.137953 93.880547 -6.595387 -173.784088 293.899567
23 -188.216690 -224.732346 -21.137953 93.943962 -6.723687 -174.577896 293.899567
[L_Toe2_01]
21 200.746536 -219.926590 148.838394 -90.774109 -26.478827 -50.804131 332.896027
22 200.746536 -219.926590 148.838394 -90.786209 -26.394081 -50.832157 332.896027
23 200.746536 -219.926590 148.838394 -90.942680 -26.825037 -50.128742 332.896027
[L_Toe3_01]
21 188.832520 -219.859131 -191.078659 -99.616409 14.535672 -65.808823 347.140900
22 188.832520 -219.859131 -191.078659 -99.648903 14.566477 -65.884193 347.140900
23 188.832520 -219.859131 -191.078659 -99.585129 14.739804 -64.919991 347.140900
[planeAlignerLeft]
21 37.058716 -569.290833 96.000359 169.306671 -76.298256 89.968483 578.516602
22 37.530510 -569.729675 95.409927 169.306686 -76.298271 89.968506 578.881226
23 35.341789 -555.160522 98.149193 169.306686 -76.298271 89.968506 564.876587
[L_Toe1_02]
21 413.761139 0.000477 0.000000 0.000203 -25.410625 -0.000182 413.761139
22 413.761139 0.000477 0.000000 0.000203 -25.410625 -0.000182 413.761139
23 413.761139 0.000477 0.000000 0.000203 -25.410625 -0.000182 413.761139
[L_Toe1_03]
21 464.317322 0.000358 -0.000089 0.003953 55.461178 0.003953 464.317322
22 464.317322 0.000358 -0.000089 0.003968 55.589695 0.003968 464.317322
23 464.317322 0.000358 -0.000089 0.004010 55.964588 0.004010 464.317322
[L_Toe2_02]
21 342.235809 -0.000477 0.000238 0.001186 -73.216240 0.001186 342.235809
22 342.235809 -0.000477 0.000238 0.001186 -73.176147 0.001186 342.235809
23 342.235809 -0.000477 0.000238 0.001188 -72.414238 0.001188 342.235809
[L_Toe2_03]
21 420.210846 -0.000715 0.000000 -0.028385 87.527100 -0.024887 420.210846
22 420.210846 -0.000715 0.000000 -0.028021 87.492828 -0.024523 420.210846
23 420.210846 -0.000715 0.000000 0.029303 85.409271 0.029303 420.210846
[L_Toe3_02]
21 329.270111 0.000954 0.000000 0.001177 -81.040985 0.001177 329.270111
22 329.270111 0.000954 0.000000 0.001177 -80.971588 0.001177 329.270111
23 329.270111 0.000954 0.000000 0.001177 -80.902122 0.001177 329.270111
[L_Toe3_03]
21 439.137451 -0.001907 0.000954 -179.996979 76.232201 -179.993454 439.137451
22 439.137451 -0.001907 0.000954 -179.996918 76.361023 -179.993393 439.137451
23 439.137451 -0.001907 0.000954 -179.996704 76.953636 -179.993179 439.137451
[planeLockWeightLeft]
21 999.998718 0.097961 0.076027 -0.011826 -0.004376 0.005620 999.998779
22 999.998718 0.097961 0.076027 -0.011826 -0.004376 0.005620 999.998779
23 999.998718 0.097961 0.076027 -0.011826 -0.004376 0.005620 999.998779
[R_Leg01]
21 761.455627 -0.001907 -0.000358 134.416916 -27.296850 10.499988 761.455688
22 761.455627 -0.001907 -0.000358 135.939331 -27.926302 10.524271 761.455688
23 761.455627 -0.001907 -0.000358 134.737579 -27.350000 11.937104 761.455688
[R_Leg02]
21 1441.140625 0.000000 -0.000238 -7.235458 2.068120 -121.950310 1441.140625
22 1441.140625 0.000000 -0.000238 -7.621274 2.186289 -120.846390 1441.140625
23 1441.140625 0.000000 -0.000238 -7.967714 1.894824 -121.403374 1441.140625
[R_Leg03]
21 1686.963989 0.000954 0.001431 -0.014473 0.005644 106.591583 1686.963989
22 1686.963989 0.000954 0.001431 -0.014477 0.005635 106.517563 1686.963989
23 1686.963989 0.000954 0.001431 -0.004579 0.000789 109.567329 1686.963989
[R_Foot]
21 3041.560059 -30.531288 -11.204481 -4.637955 -18.437889 65.157822 3041.734131
22 3041.560059 -30.531288 -11.204481 -4.929090 -18.286222 65.113495 3041.734131
23 3041.560059 -30.531288 -11.204481 -4.563844 -19.280499 64.461014 3041.734131
[planeAlignerRight]
21 -122.619324 -550.500610 -307.286133 -36.577137 -71.339012 -64.343925 642.270386
22 -122.091988 -550.968506 -306.636810 -36.577137 -71.339012 -64.343925 642.260803
23 -124.532478 -536.271301 -309.649414 -36.577137 -71.339012 -64.343925 631.647034
[R_Toe1_01]
21 -188.383347 -224.864899 21.052242 76.845528 -0.816356 -174.561279 294.101532
22 -188.383347 -224.864899 21.052242 76.851974 -0.892866 -174.571213 294.101532
23 -188.383347 -224.864899 21.052242 76.872696 -0.638960 -174.653641 294.101532
[R_Toe2_01]
21 200.637817 -220.002121 -148.787384 -90.900642 33.119587 -57.519997 332.857574
22 200.637817 -220.002121 -148.787384 -90.888466 33.092937 -57.520092 332.857574
23 200.637817 -220.002121 -148.787384 -90.607681 33.698654 -56.669853 332.857574
[R_Toe3_01]
21 188.606735 -220.092957 191.126343 -73.107956 -9.068924 -72.243622 347.192566
22 188.606735 -220.092957 191.126343 -73.078613 -9.097792 -72.286247 347.192566
23 188.606735 -220.092957 191.126343 -73.063759 -9.077241 -71.290695 347.192566
[planeLockWeightRight]
21 999.999329 0.000000 0.076017 -0.011823 -0.004379 -0.000027 999.999329
22 999.999329 0.000000 0.076017 -0.011823 -0.004379 -0.000027 999.999329
23 999.999329 0.000000 0.076017 -0.011823 -0.004379 -0.000027 999.999329
[R_Toe1_02]
21 413.762085 0.000477 -0.000119 0.001397 -24.361898 0.001397 413.762085
22 413.762085 0.000477 -0.000119 0.001397 -24.335581 0.001397 413.762085
23 413.762085 0.000477 -0.000119 0.001394 -24.710108 0.001394 413.762085
[R_Toe1_03]
21 464.317810 0.000000 0.001088 0.007309 71.519905 0.007309 464.317810
22 464.317810 0.000000 0.001088 0.007326 71.562553 0.007326 464.317810
23 464.317810 0.000000 0.001088 0.006524 69.274460 0.006524 464.317810
[R_Toe2_02]
21 342.234741 -0.000954 0.000238 0.001195 -68.480980 0.001195 342.234741
22 342.234741 -0.000954 0.000238 0.001195 -68.431038 0.001195 342.234741
23 342.234741 -0.000954 0.000238 0.001197 -67.381653 0.001197 342.234741
[R_Toe2_03]
21 420.210846 0.000715 -0.000268 0.009736 76.153534 0.009736 420.210846
22 420.210846 0.000715 -0.000268 0.009719 76.128426 0.009719 420.210846
23 420.210846 0.000715 -0.000268 0.008392 73.921211 0.008392 420.210846
[R_Toe3_02]
21 329.270355 -0.000477 -0.000954 0.001183 -75.585007 0.001183 329.270355
22 329.270355 -0.000477 -0.000954 0.001183 -75.491219 0.001183 329.270355
23 329.270355 -0.000477 -0.000954 0.001183 -75.397354 0.001183 329.270355
[R_Toe3_03]
21 439.137939 0.000238 0.001431 -0.018659 86.104591 -0.015160 439.137939
22 439.137939 0.000238 0.001431 -0.018010 85.948700 -0.014511 439.137939
23 439.137939 0.000238 0.001431 -0.016555 85.550583 -0.013056 439.137939
[Rear_Leg02]
21 1162.777710 -0.029802 0.005960 -0.873954 -2.903653 -70.683296 1162.777710
22 1162.777710 -0.029802 0.005960 -0.984557 -2.869672 -67.770798 1162.777710
23 1162.777710 -0.029802 0.005960 -0.924191 -2.888982 -68.968460 1162.777710
[Rear_Leg03]
21 607.192505 -0.013351 -0.073195 0.008844 0.003006 52.447655 607.192505
22 607.192505 -0.013351 -0.073195 0.008815 0.003088 51.391518 607.192505
23 607.192505 -0.013351 -0.073195 0.008831 0.003044 51.963013 607.192505
[Rear_Leg04]
21 995.874512 -0.020504 -0.011921 -0.035514 -0.017571 37.351616 995.874573
22 995.874512 -0.020504 -0.011921 -0.033736 -0.013375 35.674675 995.874573
23 995.874512 -0.020504 -0.011921 -0.033841 -0.013108 36.579845 995.874573
[Rear_Foot]
21 3096.176270 -0.067472 -0.041425 -130.679062 86.286163 55.438740 3096.176270
22 3096.176270 -0.067472 -0.041425 -130.987045 86.276794 55.551384 3096.176270
23 3096.176270 -0.067472 -0.041425 -131.294250 86.267395 55.664536 3096.176270
[planeAlignerCenter]
21 1.038418 -10.332947 -753.117004 12.240772 -0.001473 179.998184 753.188660
22 1.039295 -10.038761 -753.323181 12.240769 -0.001473 179.998184 753.390808
23 1.037636 -12.533884 -739.022034 12.240769 -0.001473 179.998184 739.129028
[Rear_Toe1_01]
21 0.653352 83.966492 -371.173737 0.281751 40.242271 90.405396 380.553192
22 0.653352 83.966492 -371.173737 0.281649 40.319286 90.405205 380.553192
23 0.653352 83.966492 -371.173737 0.277101 39.493343 90.402695 380.553192
[Rear_Toe2_01]
21 178.200760 -294.826019 -362.060547 -7.341451 33.179291 -66.215439 499.765686
22 178.200760 -294.826019 -362.060547 -7.328480 33.232388 -66.183945 499.765686
23 178.200760 -294.826019 -362.060547 -7.518482 31.950296 -66.440613 499.765686
[Rear_Toe3_01]
21 -153.359680 -308.780914 -362.060852 3.361444 32.353024 -112.600052 499.952881
22 -153.359680 -308.780914 -362.060852 3.352606 32.413387 -112.627960 499.952881
23 -153.359680 -308.780914 -362.060852 3.444839 31.054911 -112.496689 499.952881
[planeLockWeightCenter]
21 1000.000000 0.000305 0.076256 -0.011814 -0.004373 -0.000015 1000.000000
22 1000.000000 0.000305 0.076256 -0.011814 -0.004373 -0.000015 1000.000000
23 1000.000000 0.000305 0.076256 -0.011814 -0.004373 -0.000015 1000.000000
[Rear_Toe1_02]
21 379.707825 0.194073 0.000477 -0.000285 -32.264732 0.006958 379.707855
22 379.707825 0.194073 0.000477 -0.000281 -32.211758 0.006956 379.707855
23 379.707825 0.194073 0.000477 -0.000292 -32.365021 0.006962 379.707855
[Rear_Toe1_03]
21 500.129700 0.165701 0.000119 0.000228 54.925472 0.007562 500.129761
22 500.129700 0.165701 0.000119 0.000206 54.741554 0.007544 500.129761
23 500.129700 0.165701 0.000119 0.000306 55.584103 0.007628 500.129761
[Rear_Toe2_02]
21 340.494507 0.000238 -0.000954 0.001190 -71.077591 0.001190 340.494507
22 340.494507 0.000238 -0.000954 0.001190 -71.108009 0.001190 340.494507
23 340.494507 0.000238 -0.000954 0.001194 -68.706360 0.001194 340.494507
[Rear_Toe2_03]
21 433.103577 0.000000 0.000238 0.007386 71.715050 0.007386 433.103546
22 433.103577 0.000000 0.000238 0.007406 71.763870 0.007406 433.103546
23 433.103577 0.000000 0.000238 0.006177 68.094482 0.006177 433.103546
[Rear_Toe3_02]
21 340.494141 -0.000358 -0.000477 0.001194 -68.562653 0.001194 340.494171
22 340.494141 -0.000358 -0.000477 0.001194 -68.592575 0.001194 340.494171
23 340.494141 -0.000358 -0.000477 0.007792 -65.913757 -0.008967 340.494171
[Rear_Toe3_03]
21 433.103577 0.001431 -0.000238 0.006116 67.873749 0.006116 433.103546
22 433.103577 0.001431 -0.000238 0.006129 67.921463 0.006129 433.103546
23 433.103577 0.001431 -0.000238 -0.000764 64.029739 -0.004352 433.103546
[Back_Bone]
21 1312.175781 -701.934692 0.000954 1.428750 -0.276330 -76.468254 1488.125488
22 1312.175781 -701.934692 0.000954 1.419635 -0.205327 -76.706635 1488.125488
23 1312.175781 -701.934692 0.000954 1.397422 -0.086572 -78.137314 1488.125488
[Head]
21 1406.159424 809.709290 0.001431 0.019518 -1.476580 7.450533 1622.625488
22 1406.159424 809.709290 0.001431 0.091862 -1.469841 6.478371 1622.625488
23 1406.159424 809.709290 0.001431 0.184231 -1.459297 4.905325 1622.625488
[Motor_Bone]
21 1158.364380 -417.834747 0.000477 0.084788 0.021349 -116.759834 1231.419434
22 1158.364380 -417.834747 0.000477 0.091528 0.023218 -117.073174 1231.419434
23 1158.364380 -417.834747 0.000477 0.060611 0.039865 -109.322945 1231.419434
[Ping_Mechanism]
21 1393.288208 336.513031 16.101446 0.000103 -0.000053 82.120995 1433.440796
22 1373.733643 125.565681 11.090394 0.000103 -0.000053 82.120995 1379.504883
23 1324.422485 -260.703491 8.928475 0.000103 -0.000053 82.120995 1349.867065
[BN_LookIK]
21 193.241119 1380.371704 -0.002861 0.000000 89.965736 -31.038179 1393.832153
22 193.241119 1380.371704 -0.002861 0.000000 89.965736 -31.038179 1393.832153
23 193.241119 1380.371704 -0.002861 0.000000 89.965736 -31.038179 1393.832153
[bottomMouth]
21 -435.092926 615.759399 -0.000954 -0.000022 0.000016 73.527184 753.966492
22 -435.092926 615.759399 -0.000954 -0.000022 0.000016 73.527184 753.966492
23 -435.092926 615.759399 -0.000954 -0.000022 0.000016 73.527184 753.966492
[L_Mouth01]
21 554.440979 7.658243 838.222046 150.204178 23.759130 109.605339 1005.027161
22 554.440979 7.658243 838.222046 150.204178 23.759130 109.605339 1005.027161
23 554.440979 7.658243 838.222046 150.204178 23.759130 109.605339 1005.027161
[L_mouthFront]
21 551.629089 934.514771 339.150421 0.000081 2.804060 79.119301 1136.941284
22 551.629089 934.514771 339.150421 0.000081 2.804060 79.119301 1136.941284
23 551.629089 934.514771 339.150421 0.000081 2.804060 79.119301 1136.941284
[mouthGun]
21 55.332661 1627.420898 0.000000 0.000023 0.000009 -11.038128 1628.361328
22 55.332661 1627.420898 0.000000 0.000023 0.000009 -11.038128 1628.361328
23 55.332661 1627.420898 0.000000 0.000023 0.000009 -11.038128 1628.361328
[R_Mouth01]
21 554.442383 7.659197 -838.223938 29.795891 -23.759109 109.605331 1005.029541
22 554.442383 7.659197 -838.223938 29.795891 -23.759109 109.605331 1005.029541
23 554.442383 7.659197 -838.223938 29.795891 -23.759109 109.605331 1005.029541
[R_mouthFront]
21 551.629089 934.514282 -339.151367 0.000029 -2.803930 79.119133 1136.941162
22 551.629089 934.514282 -339.151367 0.000029 -2.803930 79.119133 1136.941162
23 551.629089 934.514282 -339.151367 0.000029 -2.803930 79.119133 1136.941162
[TopMouth]
21 461.269867 -56.106091 -0.008583 -0.000059 -0.000268 92.025169 464.669525
22 461.269867 -56.106091 -0.008583 -0.000059 -0.000268 92.025169 464.669525
23 461.269867 -56.106091 -0.008583 -0.000059 -0.000268 92.025169 464.669525
[weapon_bone]
21 -987.239868 1448.372803 0.001431 0.000000 89.965736 -31.038221 1752.833740
22 -987.239868 1448.372803 0.001431 0.000000 89.965736 -31.038221 1752.833740
23 -987.239868 1448.372803 0.001431 0.000000 89.965736 -31.038221 1752.833740
